<?xml version="1.0" encoding="UTF-8"?>
<svg width="18px" height="18px" viewBox="0 0 18 18" version="1.1" xmlns="http://www.w3.org/2000/svg" xmlns:xlink="http://www.w3.org/1999/xlink">
    <defs>
        <path d="M15.562,8.1L3.87,0.225c-0.818-0.562-1.87,0-1.87,0.9v15.75c0,0.9,1.052,1.462,1.87,0.9L15.562,9.9 C16.65,9.113,16.65,8.887,15.562,8.1z" id="plyr-play"></path>
        <path d="M6,1H3C1.896,1,1,1.896,1,3v12c0,1.104,0.896,2,2,2h3c1.104,0,2-0.896,2-2V3C8,1.896,7.104,1,6,1z M12,1H9 C7.896,1,7,1.896,7,3v12c0,1.104,0.896,2,2,2h3c1.104,0,2-0.896,2-2V3C14,1.896,13.104,1,12,1z" id="plyr-pause"></path>
        <path d="M16,4.995v6.011C16,11.553,15.553,12,15.007,12H9v-4H7v4H0.993C0.447,12,0,11.553,0,11.006V4.995 C0,4.447,0.447,4,0.993,4H7V0h2v4h6.007C15.553,4,16,4.447,16,4.995z" id="plyr-enter-fullscreen"></path>
        <path d="M16,11.006v-6.01C16,4.447,15.553,4,15.007,4H9v4H7V4H0.993C0.447,4,0,4.447,0,4.995v6.011 C0,11.553,0.447,12,0.993,12H7v-4h2v4h6.007C15.553,12,16,11.553,16,11.006z" id="plyr-exit-fullscreen"></path>
        <path d="M15,1h-2c-0.552,0-1,0.447-1,1v12c0,0.553,0.448,1,1,1h2c0.552,0,1-0.447,1-1V2C16,1.447,15.552,1,15,1z M5,1H3 C2.448,1,2,1.447,2,2v12c0,0.553,0.448,1,1,1h2c0.552,0,1-0.447,1-1V2C6,1.447,5.552,1,5,1z" id="plyr-pip"></path>
        <path d="M3,13H1V1h2V13z M15,1h-2v12h2V1z" id="plyr-restart"></path>
        <path d="M9.4,1.6L8,0L2,6l6,6l1.4-1.6L4.8,6L9.4,1.6z" id="plyr-rewind"></path>
        <path d="M10.8,6L6.2,1.6L7.6,0L13.6,6l-6,6L6.2,10.4L10.8,6z" id="plyr-fast-forward"></path>
        <path d="M7,2.689C3.547,3.262,1,6.35,1,10c0,4.418,3.582,8,8,8s8-3.582,8-8c0-3.65-2.547-6.738-6-7.311V5.09 C13.547,5.662,15,7.642,15,10c0,3.313-2.687,6-6,6s-6-2.687-6-6c0-2.358,1.453-4.338,4-4.91V2.689z" id="plyr-muted"></path>
        <path d="M7,2.689C3.547,3.262,1,6.35,1,10c0,4.418,3.582,8,8,8s8-3.582,8-8c0-3.65-2.547-6.738-6-7.311V5.09 C13.547,5.662,15,7.642,15,10c0,3.313-2.687,6-6,6s-6-2.687-6-6c0-2.358,1.453-4.338,4-4.91V2.689z" id="plyr-volume"></path>
        <path d="M1,1 C1,1 4,1 4,1 C4,1 4,4 4,4 C4,4 1,4 1,4 C1,4 1,1 1,1 M1,7 C1,7 4,7 4,7 C4,7 4,10 4,10 C4,10 1,10 1,10 C1,10 1,7 1,7 M7,1 C7,1 10,1 10,1 C10,1 10,4 10,4 C10,4 7,4 7,4 C7,4 7,1 7,1 M7,7 C7,7 10,7 10,7 C10,7 10,10 10,10 C10,10 7,10 7,10 C7,10 7,7 7,7" id="plyr-captions-off"></path>
        <path d="M1,1 C1,1 4,1 4,1 C4,1 4,4 4,4 C4,4 1,4 1,4 C1,4 1,1 1,1 M1,7 C1,7 4,7 4,7 C4,7 4,10 4,10 C4,10 1,10 1,10 C1,10 1,7 1,7 M7,1 C7,1 10,1 10,1 C10,1 10,4 10,4 C10,4 7,4 7,4 C7,4 7,1 7,1 M7,7 C7,7 10,7 10,7 C10,7 10,10 10,10 C10,10 7,10 7,10 C7,10 7,7 7,7" id="plyr-captions-on"></path>
        <path d="M8,0 C3.582,0 0,3.582 0,8 C0,12.418 3.582,16 8,16 C12.418,16 16,12.418 16,8 C16,3.582 12.418,0 8,0 M7,11.8 L7,4.2 L11,8 L7,11.8" id="plyr-play-large"></path>
        <path d="M0,14.000 L0,2.000 C0,0.895 0.895,0.000 2.000,0.000 L14.000,0.000 C15.105,0.000 16.000,0.895 16.000,2.000 L16.000,14.000 C16.000,15.105 15.105,16.000 14.000,16.000 L2.000,16.000 C0.895,16.000 0,15.105 0,14.000" id="plyr-settings"></path>
    </defs>
</svg>